<?xml version="1.0" encoding="UTF-8" standalone="no"?>
<svg
   xmlns:dc="http://purl.org/dc/elements/1.1/"
   xmlns:cc="http://creativecommons.org/ns#"
   xmlns:rdf="http://www.w3.org/1999/02/22-rdf-syntax-ns#"
   xmlns:svg="http://www.w3.org/2000/svg"
   xmlns="http://www.w3.org/2000/svg"
   width="24"
   height="24"
   viewBox="0 0 24 24"
   version="1.1"
   id="svg8">
  <defs
     id="defs2">
    <rect
       x="-1.1008456"
       y="289.81766"
       width="7.9207187"
       height="7.0346723"
       id="rect2504" />
  </defs>
  <metadata
     id="metadata5">
    <rdf:RDF>
      <cc:Work
         rdf:about="">
        <dc:format>image/svg+xml</dc:format>
        <dc:type
           rdf:resource="http://purl.org/dc/dcmitype/StillImage" />
        <dc:title />
      </cc:Work>
    </rdf:RDF>
  </metadata>
  <g
     id="g2066"
     style="display:inline">
    <path
       id="rect2025"
       style="color:#000000;font-style:normal;font-variant:normal;font-weight:normal;font-stretch:normal;font-size:medium;line-height:normal;font-family:sans-serif;font-variant-ligatures:normal;font-variant-position:normal;font-variant-caps:normal;font-variant-numeric:normal;font-variant-alternates:normal;font-variant-east-asian:normal;font-feature-settings:normal;font-variation-settings:normal;text-indent:0;text-align:start;text-decoration:none;text-decoration-line:none;text-decoration-style:solid;text-decoration-color:#000000;letter-spacing:normal;word-spacing:normal;text-transform:none;writing-mode:lr-tb;direction:ltr;text-orientation:mixed;dominant-baseline:auto;baseline-shift:baseline;text-anchor:start;white-space:normal;shape-padding:0;shape-margin:0;inline-size:0;clip-rule:nonzero;display:inline;overflow:visible;visibility:visible;opacity:1;isolation:auto;mix-blend-mode:normal;color-interpolation:sRGB;color-interpolation-filters:linearRGB;solid-color:#000000;solid-opacity:1;vector-effect:none;fill:#000000;fill-opacity:1;fill-rule:nonzero;stroke:none;stroke-linecap:square;stroke-linejoin:miter;stroke-miterlimit:4;stroke-dasharray:none;stroke-dashoffset:0;stroke-opacity:1;paint-order:fill markers stroke;color-rendering:auto;image-rendering:auto;shape-rendering:auto;text-rendering:auto;enable-background:accumulate;stop-color:#000000;stop-opacity:1"
       d="M 1.4511719,42.769531 V 58.226562 H 9.9492188 C 9.7179441,58.894478 9.4873539,59.56263 9.2558594,60.230469 H 7.3164062 c 0.037542,0.314481 -0.074465,0.779083 0.056641,1 h 9.3105468 c -0.03754,-0.314481 0.07447,-0.779083 -0.05664,-1 H 14.744142 C 14.512933,59.562887 14.28243,58.894667 14.052735,58.226562 h 8.496094 V 42.769531 Z m 1,1 H 21.548828 V 54.310547 H 2.4511719 Z m 0,11.541016 H 21.548828 v 1.916015 H 2.4511719 Z m 8.5566401,2.916015 h 1.986329 c 0.229514,0.668167 0.46042,1.336247 0.691406,2.003907 h -3.371094 c 0.230888,-0.667919 0.461394,-1.336361 0.693359,-2.003907 z"
       transform="translate(0,-40)" />
    <path
       id="ellipse2035"
       style="color:#000000;font-style:normal;font-variant:normal;font-weight:normal;font-stretch:normal;font-size:medium;line-height:normal;font-family:sans-serif;font-variant-ligatures:normal;font-variant-position:normal;font-variant-caps:normal;font-variant-numeric:normal;font-variant-alternates:normal;font-variant-east-asian:normal;font-feature-settings:normal;font-variation-settings:normal;text-indent:0;text-align:start;text-decoration:none;text-decoration-line:none;text-decoration-style:solid;text-decoration-color:#000000;letter-spacing:normal;word-spacing:normal;text-transform:none;writing-mode:lr-tb;direction:ltr;text-orientation:mixed;dominant-baseline:auto;baseline-shift:baseline;text-anchor:start;white-space:normal;shape-padding:0;shape-margin:0;inline-size:0;clip-rule:nonzero;display:inline;overflow:visible;visibility:visible;opacity:1;isolation:auto;mix-blend-mode:normal;color-interpolation:sRGB;color-interpolation-filters:linearRGB;solid-color:#000000;solid-opacity:1;vector-effect:none;fill:#000000;fill-opacity:1;fill-rule:nonzero;stroke:none;stroke-linecap:square;stroke-linejoin:miter;stroke-miterlimit:4;stroke-dasharray:none;stroke-dashoffset:0;stroke-opacity:1;paint-order:fill markers stroke;color-rendering:auto;image-rendering:auto;shape-rendering:auto;text-rendering:auto;enable-background:accumulate;stop-color:#000000;stop-opacity:1"
       d="m 12.005859,45.226562 c -5.0901518,0 -7.2656246,3.654297 -7.2656246,3.654297 l -0.1464844,0.251953 0.1464844,0.25 c 0,0 2.1754728,3.654297 7.2656246,3.654297 2.629758,0 4.461659,-0.90075 5.615235,-1.810547 1.153576,-0.909795 1.662109,-1.861328 1.662109,-1.861328 l 0.123047,-0.232422 -0.123047,-0.234374 c 0,0 -0.508533,-0.951533 -1.662109,-1.861329 -1.153576,-0.909795 -2.985477,-1.810547 -5.615235,-1.810547 z M 12,46.269531 c 1.639,0 2.945313,1.282532 2.945312,2.863281 0,1.58075 -1.306312,2.863282 -2.945312,2.863282 -1.639,0 -2.9453125,-1.282532 -2.9453125,-2.863282 0,-1.580749 1.3063125,-2.863281 2.9453125,-2.863281 z m 3.076172,0.476563 c 0.799444,0.297668 1.433276,0.687746 1.925781,1.076172 0.853591,0.673205 1.080878,1.131896 1.185547,1.310546 -0.105085,0.179264 -0.332655,0.635941 -1.185547,1.308594 -0.491639,0.387744 -1.124423,0.776747 -1.921875,1.074219 0.532649,-0.658027 0.865234,-1.478672 0.865234,-2.382813 0,-0.906102 -0.334407,-1.728018 -0.86914,-2.386718 z m -6.1777345,0.0293 c -0.5201221,0.653867 -0.84375,1.465137 -0.84375,2.357421 0,0.890772 0.3232658,1.70019 0.8417969,2.353516 -1.9764938,-0.753927 -2.8705283,-2.053719 -3.0585938,-2.353516 0.1874301,-0.29892 1.0815641,-1.60277 3.0605469,-2.357421 z"
       transform="translate(0,-40)" />
    <path
       style="color:#000000;font-style:normal;font-variant:normal;font-weight:normal;font-stretch:normal;font-size:medium;line-height:normal;font-family:sans-serif;font-variant-ligatures:normal;font-variant-position:normal;font-variant-caps:normal;font-variant-numeric:normal;font-variant-alternates:normal;font-variant-east-asian:normal;font-feature-settings:normal;font-variation-settings:normal;text-indent:0;text-align:start;text-decoration:none;text-decoration-line:none;text-decoration-style:solid;text-decoration-color:#000000;letter-spacing:normal;word-spacing:normal;text-transform:none;writing-mode:lr-tb;direction:ltr;text-orientation:mixed;dominant-baseline:auto;baseline-shift:baseline;text-anchor:start;white-space:normal;shape-padding:0;shape-margin:0;inline-size:0;clip-rule:nonzero;display:inline;overflow:visible;visibility:visible;opacity:1;isolation:auto;mix-blend-mode:normal;color-interpolation:sRGB;color-interpolation-filters:linearRGB;solid-color:#000000;solid-opacity:1;vector-effect:none;fill:#000000;fill-opacity:1;fill-rule:nonzero;stroke:none;stroke-linecap:butt;stroke-linejoin:miter;stroke-miterlimit:4;stroke-dasharray:none;stroke-dashoffset:0;stroke-opacity:1;paint-order:fill markers stroke;color-rendering:auto;image-rendering:auto;shape-rendering:auto;text-rendering:auto;enable-background:accumulate;stop-color:#000000;stop-opacity:1"
       d="m 9.1328125,-13.90625 c -1.0347947,0 -1.8730469,0.865685 -1.8730469,1.90625 0,1.040565 0.8382522,1.90625 1.8730469,1.90625 1.0347945,0 1.8710935,-0.865685 1.8710935,-1.90625 0,-1.040565 -0.836299,-1.90625 -1.8710935,-1.90625 z m 0,1 c 0.4804296,0 0.8710935,0.39255 0.8710935,0.90625 0,0.5137 -0.3906639,0.90625 -0.8710935,0.90625 -0.4804296,0 -0.8730469,-0.39255 -0.8730469,-0.90625 0,-0.5137 0.3926173,-0.90625 0.8730469,-0.90625 z"
       id="ellipse2039"
       transform="rotate(90)" />
    <g
       id="g2055"
       transform="translate(0.11900879)" />
  </g>
</svg>
