<svg xmlns="http://www.w3.org/2000/svg" version="1.1" xmlns:xlink="http://www.w3.org/1999/xlink" xmlns:svgjs="http://svgjs.com/svgjs" width="90" height="90" viewBox="0 0 100 100"><g class="wrap" transform="matrix(1,0,0,1,0,0)"><defs class="background">
			<g id="background">
<path fill="url(#background-gradient)" stroke="none" d=" M 97.45 2.65 Q 94.8 0 91.15 0 L 8.85 0 Q 5.2 0 2.65 2.65 0 5.2 0 8.85 L 0 91.15 Q 0 94.8 2.65 97.45 5.2 100 8.85 100 L 91.15 100 Q 94.8 100 97.45 97.45 100 94.8 100 91.15 L 100 8.85 Q 100 5.2 97.45 2.65 Z"></path>
</g><g id="middle-1">
<path fill="#000000" fill-opacity="0.10196078431372549" stroke="none" d=" M 97.45 2.65 Q 94.85 0 91.15 0 L 8.85 0 Q 4.95 0 2.65 2.55 L 97.15 97.6 Q 100 95.05 100 91.15 L 100 8.85 Q 100 5.2 97.45 2.65 Z"></path>
</g><mask id="mask">
<path fill="#FFFFFF" stroke="none" d=" M 97.45 2.65 Q 94.8 0 91.15 0 L 8.85 0 Q 5.2 0 2.65 2.65 0 5.2 0 8.85 L 0 91.15 Q 0 94.8 2.65 97.45 5.2 100 8.85 100 L 91.15 100 Q 94.8 100 97.45 97.45 100 94.8 100 91.15 L 100 8.85 Q 100 5.2 97.45 2.65 Z"></path>
</mask>
			
	<linearGradient id="background-gradient" x1="0" y1="0" y2="1" x2="0" gradientTransform="rotate(112 0.5 0.5)">
		<stop stop-color="#d4f1f9" offset="0%"></stop>
		<stop stop-color="#e2e2e2" offset="100%"></stop>
	</linearGradient>

			
			
			
			
		<linearGradient class="shapgradient" gradientTransform="rotate(0 0.5 0.5)" id="SvgjsLinearGradient1000"><stop stop-color="#ffffff" offset="0"></stop><stop stop-color="#ffffff" offset="1"></stop></linearGradient><filter width="200%" height="200%" x="-50%" y="-50%" id="SvgjsFilter1006"><feGaussianBlur id="SvgjsFeGaussianBlur1001" result="SvgjsFeGaussianBlur1001" in="SourceAlpha" stdDeviation="2 2"></feGaussianBlur><feOffset id="SvgjsFeOffset1002" result="SvgjsFeOffset1002" in="SvgjsFeGaussianBlur1001" dy="2.82842712474619" dx="2.8284271247461903"></feOffset><feFlood id="SvgjsFeFlood1003" result="SvgjsFeFlood1003" in="SourceGraphic" flood-opacity="1" flood-color="#56565c"></feFlood><feComposite id="SvgjsFeComposite1004" result="SvgjsFeComposite1004" in="SvgjsFeFlood1003" operator="in" in2="SvgjsFeOffset1002"></feComposite><feBlend id="SvgjsFeBlend1005" result="SvgjsFeBlend1005" in="SourceGraphic"></feBlend></filter></defs><use xlink:href="#background" fill="url(#background-gradient)" class="background"></use><use xlink:href="#middle-1" class="background"></use><g class="geditable"><g mask="url(#mask)" fill="url(#SvgjsLinearGradient1000)" class="editable" transform="matrix(1,0,0,1,0,0)" filter="url(#SvgjsFilter1006)"><path d="M373.33331909179685 437.33331298828125C439.6133190917968 437.33331298828125 493.33331909179685 383.60331298828123 493.33331909179685 317.33331298828125C493.33331909179685 251.05331298828125 439.6133190917968 197.33331298828125 373.33331909179685 197.33331298828125C307.06331909179687 197.33331298828125 253.33331909179688 251.05331298828125 253.33331909179688 317.33331298828125C253.33331909179688 383.60331298828123 307.06331909179687 437.33331298828125 373.33331909179685 437.33331298828125ZM459.71331909179685 301.33331298828125H425.1233190917968C423.73331909179683 277.65331298828124 419.3733190917968 256.34331298828124 412.85331909179683 239.14331298828125C436.9033190917969 251.35331298828126 454.6633190917969 274.01331298828126 459.71331909179685 301.33331298828125ZM425.1233190917968 333.33331298828125H459.71331909179685C454.6633190917969 360.65331298828124 436.8933190917969 383.31331298828127 412.85331909179683 395.52331298828125C419.3833190917968 378.31331298828127 423.73331909179683 357.01331298828126 425.1233190917968 333.33331298828125ZM373.33331909179685 231.57331298828126C380.2433190917969 239.94331298828126 390.84331909179684 263.96331298828125 393.2933190917969 301.33331298828125H353.3633190917969C355.82331909179686 263.96331298828125 366.4233190917969 239.94331298828126 373.33331909179685 231.57331298828126ZM393.2933190917969 333.33331298828125C390.8433190917969 370.70331298828125 380.2433190917969 394.72331298828124 373.33331909179685 403.09331298828124C366.4233190917969 394.72331298828124 355.82331909179686 370.70331298828125 353.3733190917969 333.33331298828125H393.2933190917969ZM333.8033190917969 239.14331298828125C327.2833190917969 256.34331298828124 322.9333190917969 277.65331298828124 321.5333190917969 301.33331298828125H286.94331909179687C292.00331909179687 274.01331298828126 309.76331909179686 251.35331298828126 333.8033190917969 239.14331298828125ZM321.5433190917969 333.33331298828125C322.94331909179687 357.01331298828126 327.2933190917969 378.31331298828127 333.81331909179687 395.52331298828125C309.7733190917969 383.31331298828127 292.0133190917969 360.65331298828124 286.95331909179686 333.33331298828125H321.5433190917969ZM597.3333190917969 501.33331298828125V133.33331298828125C597.3333190917969 124.53331298828125 590.1333190917969 117.33331298828125 581.3333190917969 117.33331298828125H229.33331909179688C185.13331909179686 117.33331298828125 149.33331909179688 153.13331298828126 149.33331909179688 197.33331298828125V549.3333129882812C149.33331909179688 593.5333129882813 185.13331909179686 629.3333129882812 229.33331909179688 629.3333129882812H581.3333190917969C590.1333190917969 629.3333129882812 597.3333190917969 622.1333129882812 597.3333190917969 613.3333129882812V597.3333129882812C597.3333190917969 589.5333129882813 591.7333190917968 583.0333129882813 584.4333190917969 581.6333129882812C580.233319091797 568.6333129882812 580.233319091797 530.0333129882813 584.4333190917969 517.0333129882813C591.8333190917969 515.5333129882813 597.3333190917969 509.1333129882813 597.3333190917969 501.3333129882813ZM543.3333190917969 581.3333129882812H229.33331909179688C211.63331909179686 581.3333129882812 197.33331909179688 567.0333129882813 197.33331909179688 549.3333129882812C197.33331909179688 531.7333129882812 211.7333190917969 517.3333129882812 229.33331909179688 517.3333129882812H543.3333190917969C540.6333190917969 534.6333129882812 540.6333190917969 564.0333129882813 543.3333190917969 581.3333129882812ZM549.3333190917969 469.33331298828125H229.33331909179688C217.93331909179688 469.33331298828125 207.13331909179686 471.7333129882812 197.33331909179688 476.03331298828124V197.33331298828125C197.33331909179688 179.63331298828126 211.63331909179686 165.33331298828125 229.33331909179688 165.33331298828125H549.3333190917969V469.33331298828125Z " transform="matrix(0.13392857142857142,0,0,0.13392857142857142,0,0)"></path></g></g></g></svg>